<svg viewBox="0 0 760 170" xmlns="http://www.w3.org/2000/svg" font-family="Inter, ui-sans-serif, system-ui, sans-serif" role="img" aria-label="Comprar: elegís, pagás, recibís el QR y entrás">
  <defs><clipPath id="cp"><rect width="760" height="170" rx="18"/></clipPath></defs>
  <g clip-path="url(#cp)">
    <rect width="760" height="170" fill="#0f1629"/>
    <g stroke="#3b82f6" stroke-width="2.5" fill="none" marker-end="url(#cpa)"><path d="M188 85 h26"/><path d="M368 85 h26"/><path d="M548 85 h26"/></g>
    <defs><marker id="cpa" markerWidth="9" markerHeight="9" refX="6" refY="4.5" orient="auto"><path d="M0 0 L9 4.5 L0 9 z" fill="#3b82f6"/></marker></defs>

    <g transform="translate(30,50)"><rect width="158" height="70" rx="12" fill="#131c33" stroke="#2b3960"/><text x="79" y="34" text-anchor="middle" fill="#ffffff" font-size="15" font-weight="800">1 · Elegís</text><text x="79" y="54" text-anchor="middle" fill="#8aa0c6" font-size="12">entradas o asiento</text></g>

    <g transform="translate(214,50)"><rect width="150" height="70" rx="12" fill="#131c33" stroke="#2b3960"/><text x="75" y="34" text-anchor="middle" fill="#ffffff" font-size="15" font-weight="800">2 · Pagás</text><text x="75" y="54" text-anchor="middle" fill="#8aa0c6" font-size="12">MercadoPago o transf.</text></g>

    <g transform="translate(394,50)"><rect width="150" height="70" rx="12" fill="#131c33" stroke="#2b3960"/><text x="75" y="34" text-anchor="middle" fill="#ffffff" font-size="15" font-weight="800">3 · Tu QR</text><text x="75" y="54" text-anchor="middle" fill="#8aa0c6" font-size="12">por email y en tu cuenta</text></g>

    <g transform="translate(574,42)"><rect width="152" height="86" rx="14" fill="#0f2e1e" stroke="#16a34a"/><rect x="18" y="18" width="40" height="40" rx="6" fill="#eef2ff"/><g transform="translate(24,24)" fill="#0f172a"><rect width="10" height="10"/><rect x="18" width="10" height="10"/><rect y="18" width="10" height="10"/><rect x="20" y="20" width="8" height="8"/></g><text x="72" y="40" fill="#ffffff" font-size="15" font-weight="800">4 · Entrás</text><text x="72" y="60" fill="#86efac" font-size="12">con el celu</text></g>
  </g>
</svg>
